<?xml version="1.0" standalone="no"?>
<!DOCTYPE svg PUBLIC "-//W3C//DTD SVG 20010904//EN"
 "http://www.w3.org/TR/2001/REC-SVG-20010904/DTD/svg10.dtd">
<svg version="1.0" xmlns="http://www.w3.org/2000/svg"
 width="1000.000000pt" height="1000.000000pt" viewBox="0 0 1000.000000 1000.000000"
 preserveAspectRatio="xMidYMid meet">
<metadata>
Created by potrace 1.14, written by Peter Selinger 2001-2017
</metadata>
<g transform="translate(0.000000,1000.000000) scale(0.100000,-0.100000)"
fill="#000000" stroke="none">
<path d="M1255 9580 c-11 -5 -47 -9 -80 -10 -37 0 -77 -8 -104 -20 -24 -11
-52 -20 -62 -20 -11 0 -36 -9 -56 -20 -21 -11 -46 -20 -56 -20 -10 0 -20 -7
-23 -15 -4 -8 -15 -15 -26 -15 -11 0 -31 -9 -45 -20 -14 -11 -31 -20 -38 -20
-6 0 -20 -9 -30 -20 -10 -11 -24 -20 -32 -20 -7 0 -13 -4 -13 -10 0 -5 -13
-16 -29 -25 -61 -31 -170 -145 -279 -290 -21 -28 -90 -153 -97 -175 -4 -14
-14 -34 -21 -45 -8 -11 -14 -29 -14 -40 0 -11 -6 -30 -14 -41 -8 -11 -17 -42
-21 -69 -4 -28 -13 -69 -21 -93 -19 -59 -19 -350 0 -418 8 -27 17 -69 20 -93
4 -24 13 -53 21 -64 8 -12 15 -31 16 -42 0 -11 13 -42 30 -70 16 -27 33 -60
38 -72 10 -21 64 -102 103 -153 61 -78 207 -215 284 -266 32 -21 63 -44 67
-51 4 -7 16 -13 26 -13 10 0 28 -9 41 -20 13 -11 31 -20 40 -20 10 0 23 -7 30
-15 7 -8 27 -17 46 -21 18 -3 38 -12 45 -20 6 -8 23 -14 38 -14 14 0 40 -7 56
-16 35 -19 187 -38 295 -37 91 1 279 18 302 28 12 5 42 -19 112 -89 85 -85
114 -126 88 -126 -8 0 -1288 -1275 -1347 -1341 -16 -19 -39 -47 -50 -64 -34
-50 -95 -174 -95 -193 0 -9 -7 -30 -16 -47 -27 -51 -35 -223 -32 -664 l3 -426
25 -35 c77 -107 198 -141 307 -85 35 18 211 187 678 655 346 346 632 630 635
630 3 0 4 -982 4 -2183 -1 -1362 2 -2187 8 -2194 5 -7 7 -17 4 -22 -4 -5 -2
-12 4 -16 6 -4 8 -11 5 -16 -4 -5 -1 -9 4 -9 6 0 9 -10 7 -22 -4 -26 13 -69
30 -80 7 -5 10 -16 8 -26 -3 -9 4 -27 15 -39 12 -12 21 -30 21 -39 0 -9 10
-25 22 -35 11 -11 18 -19 14 -19 -7 0 8 -20 55 -77 5 -7 7 -13 5 -13 -5 0 52
-52 152 -141 12 -11 27 -17 32 -14 6 3 10 -1 10 -9 0 -9 7 -16 15 -16 8 0 15
-5 15 -11 0 -5 5 -7 11 -4 6 4 21 -3 33 -14 13 -12 27 -21 32 -20 22 4 42 -2
60 -19 11 -11 28 -18 39 -16 10 2 43 -6 72 -16 52 -18 118 -19 1793 -19 1148
0 1740 4 1740 10 0 6 5 7 10 4 6 -3 10 -2 10 3 0 9 4 10 66 15 22 2 51 11 64
20 14 9 35 17 47 17 13 0 23 4 23 9 0 5 20 17 45 27 25 9 45 21 45 25 0 5 5 9
11 9 7 0 20 9 30 21 10 11 22 18 28 15 5 -4 12 3 16 14 3 11 17 23 31 26 14 4
23 8 21 11 -2 2 11 20 30 41 57 61 63 68 63 80 0 6 6 15 13 19 18 11 57 77 57
96 0 8 7 18 16 21 8 3 12 10 9 16 -3 5 -1 10 5 10 7 0 10 6 7 13 -2 6 5 30 16
52 11 22 20 57 20 78 0 20 3 40 8 43 5 3 7 10 4 15 -4 5 -3 15 2 21 12 20 14
51 17 252 3 165 1 191 -13 205 -15 15 -46 17 -249 16 -180 0 -233 2 -237 13
-3 10 -8 1154 -5 1480 l0 62 34 0 c18 0 44 8 57 18 13 11 43 22 67 26 23 3 59
15 80 26 20 11 51 20 69 20 17 0 39 7 47 16 9 8 38 19 66 23 28 4 58 15 68 23
9 9 40 19 67 23 28 4 57 13 66 21 9 8 39 18 67 23 28 4 58 14 67 21 8 7 36 17
62 21 25 5 54 15 62 23 9 8 39 17 66 21 28 4 57 14 66 22 9 7 34 16 55 19 22
3 57 14 79 24 22 11 57 22 77 25 21 3 44 12 51 20 8 7 36 16 63 20 27 4 56 14
65 22 9 7 39 17 66 22 27 4 60 15 74 24 13 9 35 17 49 17 14 0 48 11 75 25 28
13 64 25 82 25 17 0 39 7 48 16 8 9 35 18 58 21 23 3 56 13 72 23 17 10 50 21
75 25 25 4 52 14 61 21 9 8 39 18 66 23 27 4 60 15 74 24 13 9 37 17 53 17 16
0 43 9 60 19 17 10 51 22 76 26 25 4 52 14 61 21 9 8 39 18 66 23 27 4 60 15
74 24 13 9 37 17 54 17 16 0 45 9 63 20 17 11 51 23 75 26 23 4 58 20 80 36
l37 30 0 296 c0 164 3 314 6 335 6 34 10 38 46 43 21 4 52 18 69 33 l29 25 0
786 c0 631 -3 790 -13 804 -7 10 -34 22 -61 27 -26 5 -53 15 -61 23 -8 7 -36
17 -62 21 -26 4 -55 13 -64 21 -8 8 -38 17 -65 20 -27 4 -57 14 -66 22 -10 8
-41 19 -69 23 -28 5 -59 15 -68 23 -9 8 -40 18 -69 22 -28 3 -52 10 -52 14 0
11 -57 30 -88 30 -14 0 -34 7 -44 16 -10 10 -41 21 -69 25 -28 5 -59 15 -68
24 -10 8 -40 18 -67 21 -27 4 -60 15 -73 26 -13 10 -39 18 -58 18 -18 0 -46 9
-61 19 -15 10 -47 22 -72 25 -24 4 -52 13 -60 21 -9 8 -39 18 -66 21 -27 4
-60 15 -73 26 -13 10 -40 18 -61 18 -21 0 -48 8 -61 18 -13 11 -42 22 -64 25
-22 4 -58 16 -80 27 -21 11 -52 20 -68 20 -16 0 -40 9 -54 20 -15 12 -41 20
-63 20 -22 0 -48 8 -62 19 -14 11 -48 23 -76 27 -29 3 -52 10 -52 14 0 11 -57
30 -88 30 -14 0 -33 7 -42 15 -9 8 -40 19 -68 25 -29 5 -62 16 -74 24 -13 8
-43 18 -68 22 -25 4 -53 13 -62 21 -9 8 -36 17 -60 20 -24 3 -50 12 -59 19 -8
8 -39 18 -67 24 -29 5 -62 16 -74 24 -13 8 -43 18 -68 22 -25 4 -53 14 -64 23
-25 22 -127 22 -152 0 -11 -9 -39 -19 -64 -23 -25 -4 -59 -15 -75 -26 -17 -11
-43 -20 -60 -20 -16 0 -44 -8 -60 -18 -17 -10 -50 -21 -73 -25 -24 -3 -51 -12
-60 -20 -9 -8 -37 -18 -62 -22 -25 -4 -58 -15 -75 -25 -16 -10 -49 -20 -73
-23 -24 -3 -51 -12 -60 -20 -9 -8 -36 -17 -60 -20 -24 -3 -51 -12 -60 -20 -9
-8 -37 -18 -62 -22 -25 -4 -59 -16 -76 -26 -17 -10 -44 -19 -60 -19 -16 0 -43
-8 -59 -18 -17 -10 -50 -21 -73 -25 -24 -3 -51 -12 -61 -21 -9 -8 -37 -18 -61
-22 -25 -4 -58 -14 -75 -24 -16 -10 -49 -20 -73 -23 -24 -3 -51 -12 -60 -20
-9 -8 -35 -17 -56 -20 -22 -4 -43 -12 -48 -19 -4 -7 -8 -255 -8 -550 0 -380
-3 -538 -11 -538 -19 0 -1259 1244 -1259 1264 0 29 163 188 192 187 12 0 70
-6 128 -12 178 -20 416 -8 475 24 17 9 42 17 56 17 15 0 32 6 38 14 7 8 27 17
45 20 19 4 39 13 46 21 7 8 20 15 30 15 9 0 29 9 43 20 14 11 28 20 31 20 8 0
125 80 161 110 116 97 264 263 308 345 44 82 97 197 103 222 3 15 12 46 20 68
24 73 37 279 24 416 -6 68 -17 142 -25 164 -7 22 -16 54 -19 70 -4 17 -13 44
-20 60 -58 125 -79 166 -101 199 -14 20 -25 39 -25 42 0 25 -152 193 -240 264
-23 19 -50 43 -58 53 -9 9 -22 17 -28 17 -6 0 -23 9 -38 21 -37 29 -175 99
-196 99 -10 0 -23 7 -30 15 -7 8 -24 15 -39 15 -14 0 -39 7 -56 16 -90 48
-578 48 -647 0 -12 -9 -37 -16 -55 -16 -17 0 -38 -7 -47 -15 -8 -8 -28 -18
-45 -21 -17 -4 -36 -13 -42 -20 -6 -8 -19 -14 -29 -14 -9 0 -29 -9 -43 -20
-14 -11 -29 -20 -34 -20 -10 0 -44 -24 -74 -52 -11 -10 -22 -18 -25 -18 -27 0
-199 -168 -248 -244 -20 -30 -43 -60 -51 -66 -8 -7 -15 -18 -15 -26 0 -7 -6
-19 -13 -26 -10 -11 -50 -89 -78 -153 -23 -53 -42 -115 -50 -165 -6 -30 -15
-68 -21 -85 -5 -16 -12 -90 -15 -163 -5 -106 -2 -147 12 -205 10 -39 18 -94
19 -122 1 -50 1 -50 -84 -132 -46 -46 -92 -83 -101 -83 -8 0 -57 43 -108 95
l-93 95 19 48 c15 40 18 78 17 267 0 178 -3 227 -16 256 -9 20 -19 56 -23 80
-4 24 -13 54 -21 66 -8 12 -14 30 -15 40 0 10 -13 41 -29 68 -16 28 -36 64
-45 80 -31 60 -72 121 -110 165 -118 135 -259 252 -368 305 -31 15 -60 31 -63
36 -3 5 -13 9 -22 9 -10 0 -34 9 -55 20 -20 11 -46 20 -57 20 -12 0 -35 7 -53
16 -54 28 -406 55 -452 34z m1711 -3613 l204 -204 -421 0 -421 0 204 204 c111
111 209 203 217 203 7 0 105 -92 217 -203z"/>
</g>
</svg>
